<?xml version="1.0" standalone="no"?><!DOCTYPE svg PUBLIC "-//W3C//DTD SVG 1.1//EN" "http://www.w3.org/Graphics/SVG/1.1/DTD/svg11.dtd"><svg t="1761112344654" class="icon" viewBox="0 0 1024 1024" version="1.1" xmlns="http://www.w3.org/2000/svg" p-id="1671" xmlns:xlink="http://www.w3.org/1999/xlink" width="200" height="200"><path d="M113.78 782.22C113.78 562.29 292.07 384 512 384s398.22 178.29 398.22 398.22V896H113.78z" fill="#646464" p-id="1672"></path><path d="M910.22 904H113.78a8 8 0 0 1-8-8V782.22a406.22 406.22 0 1 1 812.44 0V896a8 8 0 0 1-8 8z m-788.44-16h780.44V782.22C902.22 567.05 727.17 392 512 392S121.78 567 121.78 782.22z" fill="#222222" p-id="1673"></path><path d="M64 960c0-247.42 200.58-448 448-448s448 200.58 448 448z" fill="#FFFFFF" p-id="1674"></path><path d="M960 968H64a8 8 0 0 1-8-8 456.12 456.12 0 0 1 876.16-177.5A453.14 453.14 0 0 1 968 960a8 8 0 0 1-8 8zM72.07 952h879.86c-4.27-239-200-432-439.93-432S76.34 713.05 72.07 952z" fill="#222222" p-id="1675"></path><path d="M168 400m-96 0a96 96 0 1 0 192 0 96 96 0 1 0-192 0Z" fill="#FFFFFF" p-id="1676"></path><path d="M168 504a104 104 0 1 1 104-104 104.11 104.11 0 0 1-104 104z m0-192a88 88 0 1 0 88 88 88.1 88.1 0 0 0-88-88z" fill="#222222" p-id="1677"></path><path d="M856 400m-96 0a96 96 0 1 0 192 0 96 96 0 1 0-192 0Z" fill="#FFFFFF" p-id="1678"></path><path d="M856 504a104 104 0 1 1 104-104 104.11 104.11 0 0 1-104 104z m0-192a88 88 0 1 0 88 88 88.1 88.1 0 0 0-88-88z" fill="#222222" p-id="1679"></path><path d="M512 544m-272 0a272 272 0 1 0 544 0 272 272 0 1 0-544 0Z" fill="#646464" p-id="1680"></path><path d="M512 824a280 280 0 1 1 198-82 278.14 278.14 0 0 1-198 82z m0-544c-145.57 0-264 118.43-264 264s118.43 264 264 264 264-118.43 264-264-118.43-264-264-264z" fill="#222222" p-id="1681"></path><path d="M512 408m-344 0a344 344 0 1 0 688 0 344 344 0 1 0-688 0Z" fill="#FFFFFF" p-id="1682"></path><path d="M512 760A352.09 352.09 0 0 1 375 83.67a352.09 352.09 0 0 1 274 648.66A349.76 349.76 0 0 1 512 760z m0-688c-185.27 0-336 150.73-336 336s150.73 336 336 336 336-150.73 336-336S697.27 72 512 72z" fill="#222222" p-id="1683"></path><path d="M816 408c0 167.89-136.11 304-304 304S208 575.89 208 408s136.11-200 304-200 304 32.11 304 200z" fill="#646464" p-id="1684"></path><path d="M512 720a312 312 0 0 1-312-312c0-41.73 8.4-77.42 25-106.08 15.4-26.64 38.39-48.16 68.35-64 49.11-25.9 118.6-38 218.69-38s169.58 12.06 218.69 38c30 15.8 52.95 37.32 68.35 64 16.56 28.66 25 64.35 25 106.08A312 312 0 0 1 512 720z m0-504c-97.39 0-164.51 11.48-211.23 36.12C243.73 282.2 216 333.19 216 408c0 163.21 132.79 296 296 296s296-132.79 296-296c0-74.81-27.73-125.8-84.77-155.88C676.51 227.48 609.39 216 512 216z" fill="#222222" p-id="1685"></path><path d="M747.14 440.26C747.14 577.08 643 688 514.57 688S282 577.08 282 440.26v-21.34C282 320.11 386.13 240 514.57 240s232.57 80.11 232.57 178.92z" fill="#FFCEBF" p-id="1686"></path><path d="M514.57 696c-64.35 0-124.83-26.67-170.28-75.09S274 508.48 274 440.26v-21.34c0-50.33 25.3-97.51 71.24-132.86C390.56 251.2 450.69 232 514.57 232s124 19.2 169.33 54.06c45.94 35.35 71.24 82.53 71.24 132.86v21.34c0 68.22-25 132.37-70.28 180.65S578.93 696 514.57 696z m0-448C390.74 248 290 324.68 290 418.92v21.34C290 572.45 390.74 680 514.57 680s224.57-107.55 224.57-239.74v-21.34C739.14 324.68 638.4 248 514.57 248z" fill="#222222" p-id="1687"></path><path d="M904 400m-24 0a24 24 0 1 0 48 0 24 24 0 1 0-48 0Z" fill="#0046A0" p-id="1688"></path><path d="M120 400m-24 0a24 24 0 1 0 48 0 24 24 0 1 0-48 0Z" fill="#0046A0" p-id="1689"></path><path d="M288 864m-32 0a32 32 0 1 0 64 0 32 32 0 1 0-64 0Z" fill="#FF6242" p-id="1690"></path><path d="M288 904a40 40 0 1 1 40-40 40 40 0 0 1-40 40z m0-64a24 24 0 1 0 24 24 24 24 0 0 0-24-24z" fill="#222222" p-id="1691"></path><path d="M384 864m-32 0a32 32 0 1 0 64 0 32 32 0 1 0-64 0Z" fill="#0046A0" p-id="1692"></path><path d="M384 904a40 40 0 1 1 40-40 40 40 0 0 1-40 40z m0-64a24 24 0 1 0 24 24 24 24 0 0 0-24-24z" fill="#222222" p-id="1693"></path><path d="M303.14 485.95a37 21.14 0 1 0 74 0 37 21.14 0 1 0-74 0Z" p-id="1694"></path><path d="M652 485.95a37 21.14 0 1 0 74 0 37 21.14 0 1 0-74 0Z" p-id="1695"></path><path d="M683.71 394.57h-16.58a31.7 31.7 0 0 0-51.4 0h-16.59a8 8 0 0 0 0 16h10.69c-0.07 0.85-0.12 1.71-0.12 2.57a31.72 31.72 0 1 0 63.43 0c0-0.86 0-1.72-0.11-2.57h10.68a8 8 0 0 0 0-16zM430 394.57h-16.58a31.71 31.71 0 0 0-51.41 0h-16.58a8 8 0 0 0 0 16h10.68c-0.07 0.85-0.11 1.71-0.11 2.57a31.72 31.72 0 1 0 63.43 0c0-0.86-0.05-1.72-0.11-2.57H430a8 8 0 0 0 0-16zM514.57 611.43c-57.17 0-86.17-10.63-87.38-11.08a8 8 0 0 1 5.6-15c0.27 0.1 27.87 10.07 81.78 10.07 54.3 0 81.5-10 81.76-10.06a8 8 0 0 1 5.62 15c-1.2 0.44-30.2 11.07-87.38 11.07z" p-id="1696"></path><path d="M656 848h48v48h-48z" fill="#FF6242" p-id="1697"></path><path d="M704 904h-48a8 8 0 0 1-8-8v-48a8 8 0 0 1 8-8h48a8 8 0 0 1 8 8v48a8 8 0 0 1-8 8z m-40-16h32v-32h-32z" fill="#222222" p-id="1698"></path><path d="M704 848h48v48h-48z" fill="#0046A0" p-id="1699"></path><path d="M760 904h-64v-64h64z m-48-16h32v-32h-32z" fill="#222222" p-id="1700"></path><path d="M752 848h48v48h-48z" fill="#FFFFFF" p-id="1701"></path><path d="M800 904h-48a8 8 0 0 1-8-8v-48a8 8 0 0 1 8-8h48a8 8 0 0 1 8 8v48a8 8 0 0 1-8 8z m-40-16h32v-32h-32z" p-id="1702"></path></svg>